<svg version="1" xmlns="http://www.w3.org/2000/svg" width="1440" height="1440" viewBox="0 0 1080.000000 1080.000000"><path d="M532.8 63.3c-29.6 31.3-57.7 76.9-77.4 125.4-1.9 4.9-3.9 9.7-4.4 10.8-.5 1.1-1.6 4.2-2.6 7-1 2.7-2.2 5.6-2.7 6.2-.5.7-.6 1.3-.2 1.3.4 0 .3.6-.3 1.2-.5.7-1.3 2.9-1.7 4.8-.4 1.9-1.1 4.1-1.6 5-1.7 3.1-11.7 37.3-13.3 45.6-.2 1-1.1 4.7-2 8.1-2 7.7-3 12.8-6.6 32.3-2.1 12-2.9 16.6-3.5 23-.3 2.5-.7 5.8-.9 7.5-.2 1.6-.7 6.6-1.1 11-.4 4.4-.9 9.6-1.1 11.5-.3 1.9-.6 18.3-.8 36.5-.3 35 .4 50.5 3 65.2l.6 3.3H669l.1-2.8c0-1.5.2-3.4.3-4.2.3-1.5 1-10.2 2.3-28 1.4-19.6.7-68-1.2-82.5-.2-1.7-.9-7.3-1.5-12.5-1.3-10.4-1.6-12.9-3-21-.5-3-1.2-7.3-1.5-9.5-.4-2.2-.8-4.7-1-5.5-.2-.8-.7-3.1-1-5-.3-1.9-1-5.1-1.5-7-.5-1.9-1.1-4.9-1.4-6.5-.5-3-3.5-14.6-7.5-29.6-1.1-4.2-4.5-15-7.6-24-3-9-5.7-17.2-5.9-18.1-2.1-7.9-17.8-43.9-26.7-61.3-10.7-20.9-28.3-50-36.3-60-.9-1.1-3.7-4.7-6.2-8-8-10.5-25.6-29.5-27.2-29.5-.4 0-4.6 4.2-9.4 9.3zM46.6 250.3c-.7 2.4 0 48 .7 51.2.3 1.1.8 4.9 1.2 8.5.4 3.6.9 7.4 1.1 8.5.3 1.1.7 3.6 1 5.5.3 1.9 1.2 6.9 2 11 .9 4.1 1.8 8.6 2 10 2.2 12 12.5 46.1 20.2 66.5 4 10.8 14 34 20.2 46.9l5 10.6h293.1l-1.2-2.3c-5.2-9.9-32.5-45.3-48.4-62.6-19.6-21.3-49.5-48.2-70.5-63.4-19.8-14.3-40.9-27.9-54.5-35.2-3.9-2.1-7.4-4.1-8-4.5-2.8-2.2-34.2-17.3-46.5-22.5-10-4.2-11.4-4.8-12.5-5.1-.5-.1-5.3-1.9-10.5-3.9-23.7-9-56.6-17.4-78.5-19.9-14.9-1.8-15.2-1.8-15.9.7zM1030.7 248.6c-.1.1-2.9.5-6.2.9-3.3.3-6.9.8-8 1-1.1.3-3.6.7-5.5 1-1.9.2-4.4.7-5.5.9-1.1.2-5.6 1.2-10 2.1-29.1 6-66.2 19.4-100 36-16.8 8.3-21.2 10.7-35 18.7-17 9.9-53.8 35-58.5 39.8-.3.3-2.7 2.3-5.5 4.5-7.1 5.7-8.6 6.9-9.9 8-19.8 17.2-38.8 36.2-54.1 54-3.3 3.8-6.5 7.4-7.1 8-2.1 2-13.1 16.2-19.3 25-9.4 13.3-9.6 13.7-11.5 17.3l-1.7 3.2 146.1-.2 146-.3 7.4-15.5c8.4-17.6 19.8-45.7 24.5-60.5 1.8-5.5 3.6-10.9 4.1-12 4.6-10.7 14.7-55.8 16.6-74 .3-3.3.8-6.4 1.2-6.9.7-1.2 1.2-45.2.5-48.8-.5-2.5-.9-2.7-4.5-2.5-2.2.1-4 .3-4.1.3zM129.2 507l-9.3.5 4.2 7c2.3 3.8 8 12.3 12.7 18.7l8.6 11.8h793.3l2.4-2.8c7.3-8.3 14.9-19.2 21.3-30.5 2.4-4.2 2.5-4.7.9-4.8-9.2-.3-827.1-.3-834.1.1zM179.8 587.5c3.2 3.6 3.7 4.2 9.3 10.1 7.6 8 14.3 14.2 20.7 19.2l5.4 4.2h651l9.1-6.3c11-7.4 29.7-25.5 29.7-28.5 0-.4-163.5-.7-363.4-.7-361.4 0-363.4 0-361.8 2zM274.7 658.8c-7 .4-7.3 0 9.8 11.4 42.8 28.4 79.5 45.7 129 60.8 10.2 3.1 29.6 7 44 8.9 4.4.6 9.7 1.3 11.7 1.6l3.6.5-.3-29.3c-.3-16-.6-30.8-.8-32.7-.5-3.6-2-18-2.1-19.2-.1-.3-.4-1-.8-1.3-.7-.7-182-1.3-194.1-.7zM481.7 658.8l-2.7.3 1.8 2.7c1 1.5 2.2 3.4 2.5 4.2.4.8 1.7 3.1 2.8 5 1.2 1.9 4.4 7.3 7.2 12 12.8 21.4 29.8 44.6 42.5 57.7 6.1 6.5 7.5 7.3 8.9 4.9.4-.7 3.3-4.2 6.5-7.7 3.1-3.5 6.7-7.8 7.9-9.4 1.3-1.7 2.6-3.2 2.9-3.5 7.1-6.6 43.4-63.9 41.7-65.7-.6-.6-117-1.1-122-.5zM623.9 658.8l-7.7.3-.7 5.2c-.4 2.9-.9 6.1-1.1 7.2-1.9 10.8-3.4 32.2-3.5 51.5-.2 20.7-.5 19.1 3.4 18.5 1.7-.2 7-.9 11.7-1.5 18.7-2.3 53.7-10.6 65.4-15.5 2-.9 3.7-1.5 3.8-1.4.3 0 1.7-.4 12.3-4.3 4.4-1.7 9.8-3.8 12-4.7 31.7-14 50.9-24.5 79.9-43.8 15.4-10.3 16.6-11.3 13.5-11.4-16.3-.2-183.2-.3-189-.1zM384.5 794l-11 .5v35.1l.1 35.1-7.1-3.8c-14.3-7.6-27.8-10.7-44.7-10.4-5.7.1-13 .8-16.3 1.5-36.9 7.8-64.6 36.7-69.9 73-4.6 31.3 7.2 60.7 33 82.1 7.3 6.2 21.1 12.9 32.9 16.1 9.4 2.6 27.5 3.2 38 1.2 8.5-1.6 21.4-6.2 28.1-10 2.2-1.3 4.5-2.4 5.1-2.4.6 0 1 2 .9 4.7l-.1 4.8 21.3.3 21.2.2v-3c.3-22.2 0-224.3-.3-224.6-.7-.7-18.9-1-31.2-.4zm-45.2 97.1c24 8.1 39 34.4 32.9 57.9-6.2 24-30.2 40.4-54.1 36.8-11.5-1.7-20.7-6.5-29.4-15.3-9.5-9.6-13.8-20.6-13.3-33.9.4-10.1.8-11.5 5-20.1 10.7-21.7 36.7-32.9 58.9-25.4zM436.9 800.5c-.1 8.4-.1 25.1 0 31.2l.1 4.8h20.5c13 0 20.5-.4 20.6-1 .1-1.3.1-39.7 0-40.8-.1-.4-9.3-.7-20.6-.7H437l-.1 6.5zM634.2 827.2c0 41.4.1 38.3-1.4 37-5.8-4.6-21-10.6-32.8-12.8-10.3-1.9-34.1-.6-41 2.3-.8.3-1.7.7-2 .8-5.3 1.4-13 4.9-19.3 8.8-7.2 4.4-7.1 4.3-16.3 13.4-17.2 17.2-25.6 38.4-24.9 63.3.4 12.8 1 16.4 4.3 26 5.7 16.8 14.8 29.7 29 41 8.4 6.7 20.5 12.9 31.2 16 14.4 4.1 35.8 3.4 51.5-1.6 6.5-2.1 17.5-7.2 19.8-9.2 1.9-1.7 2-1.5 1.8 5.1l-.1 4.7h41.7V794h-41.5v33.2zm-32.7 64.4c27.8 10.7 40.5 42.3 27.2 67.7-10 19.1-32.2 30.2-52.3 26.1-17.9-3.6-32.4-16.7-37.5-33.9-5.3-17.4-.4-35.5 13.1-48.7 8.3-8.1 17-12.1 30.5-14.1 3.3-.5 14.8 1.3 19 2.9zM1002.5 795.9c-14 6.5-16.8 24.3-5.5 34.9 14.7 13.9 38.6 0 34.7-20.1-.8-3.9-2.1-6.1-5.6-9.8-6.7-6.9-15.5-8.8-23.6-5zm16.2 3c10.6 4.8 13.5 19.4 5.7 28.1-6.1 6.7-15.5 8.2-22.5 3.5-18.7-12.3-3.5-40.8 16.8-31.6z"/><path d="M1004.5 803.8c-.3.3-.5 5.6-.5 11.9 0 9.4.3 11.3 1.5 11.3.8 0 1.5-.6 1.6-1.3 0-.6.2-2.7.2-4.6.3-5.3 3-4.8 6.2 1 1.7 3.3 3.3 4.9 4.6 4.9 1.8 0 1.7-.3-.8-5l-2.7-5 2.1-1.5c3.1-2.2 3.5-6.2.9-9.2-1.7-2-3.2-2.5-7.4-2.7-2.9-.2-5.4 0-5.7.2zm10.7 4.4c1.1 1.9 1 4.6-.3 5.4-.6.3-2.6.8-4.3 1.1-3.1.4-3.2.2-3.3-2.9-.1-1.8 0-3.8.2-4.5.5-1.5 6.6-.8 7.7.9zM110.8 852c-23.5 4.9-42.4 17.3-55.6 36.6-15.4 22.5-19.2 52.6-10.1 78.7 9.5 27.3 32.9 48.5 61.9 56.3 7 1.9 27.3 2.5 36.7 1.2 7-1.1 20.8-5.9 28.7-10.1l6.6-3.5.1 3.2c.1 1.7 0 4.1-.1 5.3l-.1 2.3h41.7v-84.8l-.1-84.7h-41l-.2 4c-.1 2.2-.2 5-.2 6.3l-.1 2.2-3.9-2.4c-16.4-10.4-43.6-14.8-64.3-10.6zm29.4 38.1c2.9.6 8.3 2.7 12 4.6 26 13.5 34.6 45.4 18.8 69.1-13.6 20.3-40.5 28.2-61.6 18.1-20.9-10.1-32.2-31.9-27.7-53.6 3.5-17.2 17.5-32.4 34.8-37.9 5-1.6 16.8-1.7 23.7-.3zM761 852c-18.6 3.9-32.1 11.1-45.1 24-16.6 16.4-25.1 35.2-26.3 58.2-2 39.9 25 76.7 64.9 88.4 9.9 2.9 29 4.1 37.5 2.4 8.3-1.7 9.3-1.9 14.4-3.6 5.2-1.7 18.1-7.8 20.3-9.6.8-.7 1.1 0 1.1 2.4 0 1.8 0 4.3.1 5.5l.1 2.3h21c11.6 0 21-.3 21.1-.8 0-.4.1-38.5.1-84.7l.1-84-21.2-.1c-18.6-.1-21.1.1-21.2 1.5-.1.9-.1 3.7 0 6.3l.1 4.8-5.2-3.2c-8.6-5-15.1-7.4-28.3-10.5-6-1.3-25.5-.9-33.5.7zm31.5 38.5c12.4 3.5 24.1 13.6 30 26 4 8.3 5.4 15.2 5 24.3-1.2 24.8-22.9 45.7-47.2 45.4-13.6-.1-25.2-5.1-35.1-15.2-9.2-9.3-14-20.7-14-33.1 0-23.6 17.7-44.3 41.3-48.3 7.9-1.4 12.8-1.1 20 .9zM942.7 851.6c-33.8 5.9-53.4 26.7-52.3 55.3.4 9 2.3 15.6 6.9 23.4 3.1 5.2 11.1 12.8 16.3 15.5 9.2 4.7 35 11.3 48.9 12.7 12.1 1.1 21.4 3.6 25.8 6.7 10.9 7.8 3.9 23.5-12.3 27.8-13 3.5-32.1-.3-38.7-7.8-3.2-3.5-6.2-10-6.3-13.2 0-1.4-.4-3-.8-3.5-.6-.8-33.2-1.3-42.5-.6-3.7.2.7 18 7.1 28 8.4 13.3 22.5 22.5 41.9 27.3 7.1 1.7 12 2.1 25.3 2.2 18 .1 22.2-.4 35.2-4 3.5-1 9.4-3.4 13.2-5.4 18.1-9.7 27.2-23.9 28.3-44.2 1.1-18.4-5.1-30.9-20-40.5-6.2-4.1-19.2-9.6-24.9-10.7-1.3-.2-6.1-1.1-10.8-1.9-4.7-.9-10.3-1.8-12.5-2.2-18.6-2.7-28-5.6-33.3-10-8.6-7.2-4-18.7 8.8-22.2.8-.2 6.3-.7 12.1-1 13.6-.7 20.7 1.1 26.1 6.7 2 2.2 3.9 5.3 4.2 6.9.3 1.7.8 4.3 1.1 5.9l.6 2.7h41.4l-.3-4.9c-1.1-17.5-15.9-35.6-35.8-43.9-13.7-5.7-36.3-7.9-52.7-5.1zM436.9 856.4v164.3c.1 1 4.9 1.3 20.6 1.3H478l.1-2.3c.1-2.8.1-161.3 0-164.8l-.1-2.6h-41l-.1 4.1z"/></svg>